# xmcd CD database file generated by LOLA_Freedb v0.9beta0
# 
# Track frame offsets:
#      150
#      17571
#      30425
#      48980
#      67564
#      83839
#      101326
#      122453
#      138434
#      152432
# 
# Disc length: 2266 seconds
# 
# Revision: 0 
# Processed by: cddbd v1.5.2PL0 Copyright (c) Steve Scherf et al.
# Submitted via: LOLA_Freedb v0.9beta0
# 
DISCID=6408d80a
DTITLE=Joe Cocker - Hymn For My Soul
DYEAR=2007
DGENRE=
TTITLE0=Joe Cocker - You Haven't Done Nothin'
TTITLE1=Joe Cocker - One Word (Peace)
TTITLE2=Joe Cocker - Love Is For Me
TTITLE3=Joe Cocker - Don't Give Up On Me
TTITLE4=Joe Cocker - Long As I Can See The Light
TTITLE5=Joe Cocker - Beware Of Darkness
TTITLE6=Joe Cocker - Just Pass It On
TTITLE7=Joe Cocker - Rivers Invitation
TTITLE8=Joe Cocker - Ring Them Bells
TTITLE9=Joe Cocker - Hymn 4 My Soul
EXTD=
EXTT0=
EXTT1=
EXTT2=
EXTT3=
EXTT4=
EXTT5=
EXTT6=
EXTT7=
EXTT8=
EXTT9=
PLAYORDER=
